<svg xmlns="http://www.w3.org/2000/svg" width="64" height="64" viewBox="0 0 64 64"><g transform="translate(30.26 22.67) scale(0.07585)"><defs><radialGradient id="gHeadS" gradientUnits="userSpaceOnUse" cx="-60" cy="-120" r="360"><stop offset="0" stop-color="#A06A42"/><stop offset="1" stop-color="#6A4128"/></radialGradient><radialGradient id="gMuzS" gradientUnits="userSpaceOnUse" cx="0" cy="40" r="200"><stop offset="0" stop-color="#D8B288"/><stop offset="1" stop-color="#B08660"/></radialGradient></defs><path d="M150.0 -196.0C141.7 -214.0 154.0 -234.3 162.0 -248.0C170.0 -261.7 184.3 -273.7 198.0 -278.0C211.7 -282.3 231.3 -280.3 244.0 -274.0C256.7 -267.7 268.7 -253.3 274.0 -240.0C279.3 -226.7 279.7 -209.0 276.0 -194.0C272.3 -179.0 262.7 -159.0 252.0 -150.0C241.3 -141.0 229.0 -132.3 212.0 -140.0C195.0 -147.7 158.3 -178.0 150.0 -196.0Z" fill="url(#gHeadS)" /><path d="M182.0 -206.0C179.3 -215.7 186.3 -231.7 192.0 -240.0C197.7 -248.3 207.7 -254.7 216.0 -256.0C224.3 -257.3 236.0 -254.3 242.0 -248.0C248.0 -241.7 252.7 -228.3 252.0 -218.0C251.3 -207.7 245.3 -192.0 238.0 -186.0C230.7 -180.0 217.3 -178.7 208.0 -182.0C198.7 -185.3 184.7 -196.3 182.0 -206.0Z" fill="#3A2416" /><path d="M-150.0 -196.0C-141.7 -214.0 -154.0 -234.3 -162.0 -248.0C-170.0 -261.7 -184.3 -273.7 -198.0 -278.0C-211.7 -282.3 -231.3 -280.3 -244.0 -274.0C-256.7 -267.7 -268.7 -253.3 -274.0 -240.0C-279.3 -226.7 -279.7 -209.0 -276.0 -194.0C-272.3 -179.0 -262.7 -159.0 -252.0 -150.0C-241.3 -141.0 -229.0 -132.3 -212.0 -140.0C-195.0 -147.7 -158.3 -178.0 -150.0 -196.0Z" fill="url(#gHeadS)" /><path d="M-182.0 -206.0C-179.3 -215.7 -186.3 -231.7 -192.0 -240.0C-197.7 -248.3 -207.7 -254.7 -216.0 -256.0C-224.3 -257.3 -236.0 -254.3 -242.0 -248.0C-248.0 -241.7 -252.7 -228.3 -252.0 -218.0C-251.3 -207.7 -245.3 -192.0 -238.0 -186.0C-230.7 -180.0 -217.3 -178.7 -208.0 -182.0C-198.7 -185.3 -184.7 -196.3 -182.0 -206.0Z" fill="#3A2416" /><path d="M0.0 -246.0C30.7 -246.0 64.0 -245.7 92.0 -240.0C120.0 -234.3 145.3 -225.3 168.0 -212.0C190.7 -198.7 212.3 -180.3 228.0 -160.0C243.7 -139.7 253.3 -115.0 262.0 -90.0C270.7 -65.0 275.0 -35.3 280.0 -10.0C285.0 15.3 292.0 39.7 292.0 62.0C292.0 84.3 288.0 105.0 280.0 124.0C272.0 143.0 260.3 161.0 244.0 176.0C227.7 191.0 206.0 203.7 182.0 214.0C158.0 224.3 130.3 232.7 100.0 238.0C69.7 243.3 33.3 246.0 0.0 246.0C-33.3 246.0 -69.7 243.3 -100.0 238.0C-130.3 232.7 -158.0 224.3 -182.0 214.0C-206.0 203.7 -227.7 191.0 -244.0 176.0C-260.3 161.0 -272.0 143.0 -280.0 124.0C-288.0 105.0 -292.0 84.3 -292.0 62.0C-292.0 39.7 -285.0 15.3 -280.0 -10.0C-275.0 -35.3 -270.7 -65.0 -262.0 -90.0C-253.3 -115.0 -243.7 -139.7 -228.0 -160.0C-212.3 -180.3 -190.7 -198.7 -168.0 -212.0C-145.3 -225.3 -120.0 -234.3 -92.0 -240.0C-64.0 -245.7 -30.7 -246.0 0.0 -246.0Z" fill="url(#gHeadS)" /><path d="M232.0 -158.0C239.3 -154.7 257.3 -108.7 266.0 -84.0C274.7 -59.3 279.7 -34.3 284.0 -10.0C288.3 14.3 292.7 39.7 292.0 62.0C291.3 84.3 288.0 105.0 280.0 124.0C272.0 143.0 258.0 161.7 244.0 176.0C230.0 190.3 199.7 214.3 196.0 210.0C192.3 205.7 214.0 173.3 222.0 150.0C230.0 126.7 240.7 98.3 244.0 70.0C247.3 41.7 245.7 9.0 242.0 -20.0C238.3 -49.0 223.7 -81.0 222.0 -104.0C220.3 -127.0 224.7 -161.3 232.0 -158.0Z" fill="#6A4128" opacity=".8"/><path d="M-232.0 -158.0C-239.3 -154.7 -257.3 -108.7 -266.0 -84.0C-274.7 -59.3 -279.7 -34.3 -284.0 -10.0C-288.3 14.3 -292.7 39.7 -292.0 62.0C-291.3 84.3 -288.0 105.0 -280.0 124.0C-272.0 143.0 -258.0 161.7 -244.0 176.0C-230.0 190.3 -199.7 214.3 -196.0 210.0C-192.3 205.7 -214.0 173.3 -222.0 150.0C-230.0 126.7 -240.7 98.3 -244.0 70.0C-247.3 41.7 -245.7 9.0 -242.0 -20.0C-238.3 -49.0 -223.7 -81.0 -222.0 -104.0C-220.3 -127.0 -224.7 -161.3 -232.0 -158.0Z" fill="#6A4128" opacity=".8"/><path d="M0.0 -96.0C12.7 -96.0 27.7 -100.3 38.0 -92.0C48.3 -83.7 54.0 -65.3 62.0 -46.0C70.0 -26.7 76.3 1.3 86.0 24.0C95.7 46.7 111.3 69.3 120.0 90.0C128.7 110.7 138.0 129.7 138.0 148.0C138.0 166.3 132.0 186.0 120.0 200.0C108.0 214.0 86.0 225.3 66.0 232.0C46.0 238.7 22.0 240.0 0.0 240.0C-22.0 240.0 -46.0 238.7 -66.0 232.0C-86.0 225.3 -108.0 214.0 -120.0 200.0C-132.0 186.0 -138.0 166.3 -138.0 148.0C-138.0 129.7 -128.7 110.7 -120.0 90.0C-111.3 69.3 -95.7 46.7 -86.0 24.0C-76.3 1.3 -70.0 -26.7 -62.0 -46.0C-54.0 -65.3 -48.3 -83.7 -38.0 -92.0C-27.7 -100.3 -12.7 -96.0 0.0 -96.0Z" fill="url(#gMuzS)" /><path d="M0.0 60.0C15.3 60.0 33.3 59.3 46.0 62.0C58.7 64.7 70.3 69.3 76.0 76.0C81.7 82.7 82.7 93.7 80.0 102.0C77.3 110.3 68.7 119.0 60.0 126.0C51.3 133.0 38.0 140.0 28.0 144.0C18.0 148.0 9.3 150.0 0.0 150.0C-9.3 150.0 -18.0 148.0 -28.0 144.0C-38.0 140.0 -51.3 133.0 -60.0 126.0C-68.7 119.0 -77.3 110.3 -80.0 102.0C-82.7 93.7 -81.7 82.7 -76.0 76.0C-70.3 69.3 -58.7 64.7 -46.0 62.0C-33.3 59.3 -15.3 60.0 0.0 60.0Z" fill="#14161D" /><ellipse cx="98" cy="-36" rx="24" ry="21" fill="#14161D"/><ellipse cx="-98" cy="-36" rx="24" ry="21" fill="#14161D"/><g transform="translate(0 25)"><g transform="translate(40 300) rotate(-8)"><rect x="-280.0" y="-170.0" width="560" height="340" rx="34.0" fill="#E7000B"/><path transform="translate(0 0) scale(0.05950) translate(-4800 -2420)" d="m4890 4430-45-863a95 95 0 0 1 111-98l859 151-116-320a65 65 0 0 1 20-73l941-762-212-99a65 65 0 0 1-34-79l186-572-542 115a65 65 0 0 1-73-38l-105-247-423 454a65 65 0 0 1-111-57l204-1052-327 189a65 65 0 0 1-91-27l-332-652-332 652a65 65 0 0 1-91 27l-327-189 204 1052a65 65 0 0 1-111 57l-423-454-105 247a65 65 0 0 1-73 38l-542-115 186 572a65 65 0 0 1-34 79l-212 99 941 762a65 65 0 0 1 20 73l-116 320 859-151a95 95 0 0 1 111 98l-45 863z" fill="#FFFFFF"/></g></g></g></svg>